<?xml version="1.0" encoding="UTF-8" standalone="no"?><svg xmlns="http://www.w3.org/2000/svg" xmlns:xlink="http://www.w3.org/1999/xlink" contentScriptType="application/ecmascript" contentStyleType="text/css" height="124px" preserveAspectRatio="none" style="width:420px;height:124px;" version="1.1" viewBox="0 0 420 124" width="420px" zoomAndPan="magnify"><defs><filter height="300%" id="f1d20393fj03z0" width="300%" x="-1" y="-1"><feGaussianBlur result="blurOut" stdDeviation="2.0"/><feColorMatrix in="blurOut" result="blurOut2" type="matrix" values="0 0 0 0 0 0 0 0 0 0 0 0 0 0 0 0 0 0 .4 0"/><feOffset dx="4.0" dy="4.0" in="blurOut2" result="blurOut3"/><feBlend in="SourceGraphic" in2="blurOut3" mode="normal"/></filter></defs><g><!--cluster de.fhro.inf.prg3.a05.utils--><polygon fill="#FFFFFF" filter="url(#f1d20393fj03z0)" points="14,16,217,16,224,38.2969,398,38.2969,398,112,14,112,14,16" style="stroke: #000000; stroke-width: 2.0;"/><line style="stroke: #000000; stroke-width: 2.0;" x1="14" x2="224" y1="38.2969" y2="38.2969"/><text fill="#000000" font-family="sans-serif" font-size="14" font-weight="bold" lengthAdjust="spacingAndGlyphs" textLength="197" x="18" y="30.9951">de.fhro.inf.prg3.a05.utils</text><!--class PlantBedUtility--><rect fill="#FEFECE" filter="url(#f1d20393fj03z0)" height="60.8047" id="PlantBedUtility" style="stroke: #A80036; stroke-width: 1.5;" width="368" x="22" y="43"/><ellipse cx="151.25" cy="59" fill="#A9DCDF" rx="11" ry="11" style="stroke: #A80036; stroke-width: 1.0;"/><path d="M151.3594,54.3438 L150.2031,59.4219 L152.5313,59.4219 L151.3594,54.3438 Z M149.875,52.1094 L152.8594,52.1094 L156.2188,64.5 L153.7656,64.5 L153,61.4375 L149.7188,61.4375 L148.9688,64.5 L146.5313,64.5 L149.875,52.1094 Z "/><ellipse cx="176.75" cy="58.5" fill="#84BE84" rx="3" ry="3" style="stroke: #038048; stroke-width: 1.0;"/><text fill="#000000" font-family="sans-serif" font-size="12" font-style="italic" lengthAdjust="spacingAndGlyphs" textLength="90" x="182.75" y="63.1543">PlantBedUtility</text><line style="stroke: #A80036; stroke-width: 1.5;" x1="23" x2="389" y1="75" y2="75"/><line style="stroke: #A80036; stroke-width: 1.5;" x1="23" x2="389" y1="83" y2="83"/><ellipse cx="33" cy="94.9023" fill="#84BE84" rx="3" ry="3" style="stroke: #038048; stroke-width: 1.0;"/><text fill="#000000" font-family="sans-serif" font-size="11" lengthAdjust="spacingAndGlyphs" text-decoration="underline" textLength="342" x="42" y="97.2104">&lt;R, T&gt; splitBedByColor(bed: PlantBed&lt;T&gt;) : SimpleList&lt;R&gt;</text><line style="stroke: #000000; stroke-width: 1.0;" x1="42" x2="384" y1="99.2104" y2="99.2104"/><!--
@startuml
package de.fhro.inf.prg3.a05.utils {
    +abstract class PlantBedUtility{
        +{static} <R, T> splitBedByColor(bed: PlantBed<T>) : SimpleList<R>
    }
}
@enduml

PlantUML version 1.2017.18(Fri Oct 06 18:56:32 CEST 2017)
(GPL source distribution)
Java Runtime: OpenJDK Runtime Environment
JVM: OpenJDK 64-Bit Server VM
Java Version: 1.8.0_144-b01
Operating System: Linux
OS Version: 4.13.10-1-ARCH
Default Encoding: UTF-8
Language: en
Country: US
--></g></svg>