<?xml version="1.0" encoding="UTF-8" standalone="no"?><svg xmlns="http://www.w3.org/2000/svg" xmlns:xlink="http://www.w3.org/1999/xlink" contentScriptType="application/ecmascript" contentStyleType="text/css" height="124px" preserveAspectRatio="none" style="width:512px;height:124px;" version="1.1" viewBox="0 0 512 124" width="512px" zoomAndPan="magnify"><defs><filter height="300%" id="fclunk70uv1gw" width="300%" x="-1" y="-1"><feGaussianBlur result="blurOut" stdDeviation="2.0"/><feColorMatrix in="blurOut" result="blurOut2" type="matrix" values="0 0 0 0 0 0 0 0 0 0 0 0 0 0 0 0 0 0 .4 0"/><feOffset dx="4.0" dy="4.0" in="blurOut2" result="blurOut3"/><feBlend in="SourceGraphic" in2="blurOut3" mode="normal"/></filter></defs><g><!--cluster de.fhro.inf.prg3.a05.utils--><polygon fill="#FFFFFF" filter="url(#fclunk70uv1gw)" points="14,16,217,16,224,38.2969,490,38.2969,490,112,14,112,14,16" style="stroke: #000000; stroke-width: 2.0;"/><line style="stroke: #000000; stroke-width: 2.0;" x1="14" x2="224" y1="38.2969" y2="38.2969"/><text fill="#000000" font-family="sans-serif" font-size="14" font-weight="bold" lengthAdjust="spacingAndGlyphs" textLength="197" x="18" y="30.9951">de.fhro.inf.prg3.a05.utils</text><!--class PlantBedUtility--><rect fill="#FEFECE" filter="url(#fclunk70uv1gw)" height="60.8047" id="PlantBedUtility" style="stroke: #A80036; stroke-width: 1.5;" width="460" x="22" y="43"/><ellipse cx="197.25" cy="59" fill="#A9DCDF" rx="11" ry="11" style="stroke: #A80036; stroke-width: 1.0;"/><path d="M197.3594,54.3438 L196.2031,59.4219 L198.5313,59.4219 L197.3594,54.3438 Z M195.875,52.1094 L198.8594,52.1094 L202.2188,64.5 L199.7656,64.5 L199,61.4375 L195.7188,61.4375 L194.9688,64.5 L192.5313,64.5 L195.875,52.1094 Z "/><ellipse cx="222.75" cy="58.5" fill="#84BE84" rx="3" ry="3" style="stroke: #038048; stroke-width: 1.0;"/><text fill="#000000" font-family="sans-serif" font-size="12" font-style="italic" lengthAdjust="spacingAndGlyphs" textLength="90" x="228.75" y="63.1543">PlantBedUtility</text><line style="stroke: #A80036; stroke-width: 1.5;" x1="23" x2="481" y1="75" y2="75"/><line style="stroke: #A80036; stroke-width: 1.5;" x1="23" x2="481" y1="83" y2="83"/><ellipse cx="33" cy="94.9023" fill="#84BE84" rx="3" ry="3" style="stroke: #038048; stroke-width: 1.0;"/><text fill="#000000" font-family="sans-serif" font-size="11" lengthAdjust="spacingAndGlyphs" text-decoration="underline" textLength="434" x="42" y="97.2104">&lt;T&gt; splitBedByColor(bed: PlantBed&lt;T&gt;) : Map&lt;PlantColor, SimpleList&lt;T&gt;&gt;</text><line style="stroke: #000000; stroke-width: 1.0;" x1="42" x2="476" y1="99.2104" y2="99.2104"/><!--
@startuml
package de.fhro.inf.prg3.a05.utils {
    +abstract class PlantBedUtility{
        +{static} <T> splitBedByColor(bed: PlantBed<T>) : Map<PlantColor, SimpleList<T>>
    }
}
@enduml

PlantUML version 1.2017.18(Fri Oct 06 18:56:32 CEST 2017)
(GPL source distribution)
Java Runtime: OpenJDK Runtime Environment
JVM: OpenJDK 64-Bit Server VM
Java Version: 1.8.0_144-b01
Operating System: Linux
OS Version: 4.13.11-1-ARCH
Default Encoding: UTF-8
Language: en
Country: US
--></g></svg>