<?xml version="1.0" encoding="UTF-8" standalone="no"?><svg xmlns="http://www.w3.org/2000/svg" xmlns:xlink="http://www.w3.org/1999/xlink" contentScriptType="application/ecmascript" contentStyleType="text/css" height="162px" preserveAspectRatio="none" style="width:370px;height:162px;" version="1.1" viewBox="0 0 370 162" width="370px" zoomAndPan="magnify"><defs><filter height="300%" id="fkmk84y1z3mua" width="300%" x="-1" y="-1"><feGaussianBlur result="blurOut" stdDeviation="2.0"/><feColorMatrix in="blurOut" result="blurOut2" type="matrix" values="0 0 0 0 0 0 0 0 0 0 0 0 0 0 0 0 0 0 .4 0"/><feOffset dx="4.0" dy="4.0" in="blurOut2" result="blurOut3"/><feBlend in="SourceGraphic" in2="blurOut3" mode="normal"/></filter></defs><g><!--cluster de.fhro.inf.prg3.a05--><polygon fill="#FFFFFF" filter="url(#fkmk84y1z3mua)" points="14,16,179,16,186,38.2969,348,38.2969,348,150,14,150,14,16" style="stroke: #000000; stroke-width: 2.0;"/><line style="stroke: #000000; stroke-width: 2.0;" x1="14" x2="186" y1="38.2969" y2="38.2969"/><text fill="#000000" font-family="sans-serif" font-size="14" font-weight="bold" lengthAdjust="spacingAndGlyphs" textLength="159" x="18" y="30.9951">de.fhro.inf.prg3.a05</text><!--class PlantBed--><rect fill="#FEFECE" filter="url(#fkmk84y1z3mua)" height="99.2188" id="PlantBed" style="stroke: #A80036; stroke-width: 1.5;" width="317" x="22.5" y="43"/><ellipse cx="137.75" cy="59" fill="#ADD1B2" rx="11" ry="11" style="stroke: #A80036; stroke-width: 1.0;"/><path d="M140.7188,64.6406 Q140.1406,64.9375 139.5,65.0859 Q138.8594,65.2344 138.1563,65.2344 Q135.6563,65.2344 134.3359,63.5859 Q133.0156,61.9375 133.0156,58.8125 Q133.0156,55.6875 134.3359,54.0313 Q135.6563,52.375 138.1563,52.375 Q138.8594,52.375 139.5078,52.5313 Q140.1563,52.6875 140.7188,52.9844 L140.7188,55.7031 Q140.0938,55.125 139.5,54.8516 Q138.9063,54.5781 138.2813,54.5781 Q136.9375,54.5781 136.25,55.6484 Q135.5625,56.7188 135.5625,58.8125 Q135.5625,60.9063 136.25,61.9766 Q136.9375,63.0469 138.2813,63.0469 Q138.9063,63.0469 139.5,62.7734 Q140.0938,62.5 140.7188,61.9219 L140.7188,64.6406 Z "/><ellipse cx="163.25" cy="58.5" fill="#84BE84" rx="3" ry="3" style="stroke: #038048; stroke-width: 1.0;"/><text fill="#000000" font-family="sans-serif" font-size="12" lengthAdjust="spacingAndGlyphs" textLength="56" x="169.25" y="63.1543">PlantBed</text><rect fill="#FFFFFF" height="15.9688" style="stroke: #000000; stroke-width: 1.0; stroke-dasharray: 2.0,2.0;" width="9" x="333.5" y="40"/><text fill="#000000" font-family="sans-serif" font-size="12" font-style="italic" lengthAdjust="spacingAndGlyphs" textLength="7" x="334.5" y="52.1387">T</text><line style="stroke: #A80036; stroke-width: 1.5;" x1="23.5" x2="338.5" y1="75" y2="75"/><rect fill="none" height="6" style="stroke: #C82930; stroke-width: 1.0;" width="6" x="30.5" y="83.9023"/><text fill="#000000" font-family="sans-serif" font-size="11" lengthAdjust="spacingAndGlyphs" textLength="127" x="42.5" y="89.2104">plants: SimpleList&lt;T&gt;</text><line style="stroke: #A80036; stroke-width: 1.5;" x1="23.5" x2="338.5" y1="95.8047" y2="95.8047"/><ellipse cx="33.5" cy="107.707" fill="#84BE84" rx="3" ry="3" style="stroke: #038048; stroke-width: 1.0;"/><text fill="#000000" font-family="sans-serif" font-size="11" lengthAdjust="spacingAndGlyphs" textLength="72" x="42.5" y="110.0151">add(plant: T)</text><ellipse cx="33.5" cy="120.5117" fill="#84BE84" rx="3" ry="3" style="stroke: #038048; stroke-width: 1.0;"/><text fill="#000000" font-family="sans-serif" font-size="11" lengthAdjust="spacingAndGlyphs" textLength="52" x="42.5" y="122.8198">size(): int</text><ellipse cx="33.5" cy="133.3164" fill="#84BE84" rx="3" ry="3" style="stroke: #038048; stroke-width: 1.0;"/><text fill="#000000" font-family="sans-serif" font-size="11" lengthAdjust="spacingAndGlyphs" textLength="291" x="42.5" y="135.6245">getPlantsByColor(color: PlantColor): SimpleList&lt;T&gt;</text><!--
@startuml
package de.fhro.inf.prg3.a05 {

    +class PlantBed<T> {
        -plants: SimpleList<T>

        +add(plant: T)
        +size(): int
        +getPlantsByColor(color: PlantColor): SimpleList<T>
    }
}
@enduml

PlantUML version 1.2017.18(Fri Oct 06 18:56:32 CEST 2017)
(GPL source distribution)
Java Runtime: OpenJDK Runtime Environment
JVM: OpenJDK 64-Bit Server VM
Java Version: 1.8.0_144-b01
Operating System: Linux
OS Version: 4.13.10-1-ARCH
Default Encoding: UTF-8
Language: en
Country: US
--></g></svg>