<?xml version="1.0" encoding="UTF-8" standalone="no"?><svg xmlns="http://www.w3.org/2000/svg" xmlns:xlink="http://www.w3.org/1999/xlink" contentScriptType="application/ecmascript" contentStyleType="text/css" height="450px" preserveAspectRatio="none" style="width:329px;height:450px;" version="1.1" viewBox="0 0 329 450" width="329px" zoomAndPan="magnify"><defs><filter height="300%" id="fuo7d3w64lzyw" width="300%" x="-1" y="-1"><feGaussianBlur result="blurOut" stdDeviation="2.0"/><feColorMatrix in="blurOut" result="blurOut2" type="matrix" values="0 0 0 0 0 0 0 0 0 0 0 0 0 0 0 0 0 0 .4 0"/><feOffset dx="4.0" dy="4.0" in="blurOut2" result="blurOut3"/><feBlend in="SourceGraphic" in2="blurOut3" mode="normal"/></filter></defs><g><!--cluster java.lang--><polygon fill="#FFFFFF" filter="url(#fuo7d3w64lzyw)" points="14,16,82,16,89,41.0679,182,41.0679,182,117,14,117,14,16" style="stroke: #000000; stroke-width: 1.5;"/><line style="stroke: #000000; stroke-width: 1.5;" x1="14" x2="89" y1="41.0679" y2="41.0679"/><text fill="#000000" font-family="sans-serif" font-size="14" font-weight="bold" lengthAdjust="spacingAndGlyphs" textLength="62" x="18" y="32.9659">java.lang</text><!--cluster de.thro.inf.prg3.a05.model--><polygon fill="#FFFFFF" filter="url(#fuo7d3w64lzyw)" points="26,139,217,139,224,164.0679,307,164.0679,307,438,26,438,26,139" style="stroke: #000000; stroke-width: 1.5;"/><line style="stroke: #000000; stroke-width: 1.5;" x1="26" x2="224" y1="164.0679" y2="164.0679"/><text fill="#000000" font-family="sans-serif" font-size="14" font-weight="bold" lengthAdjust="spacingAndGlyphs" textLength="185" x="30" y="155.9659">de.thro.inf.prg3.a05.model</text><!--class Comparable--><rect fill="#FEFECE" filter="url(#fuo7d3w64lzyw)" height="62.9819" id="Comparable" style="stroke: #A80036; stroke-width: 1.5;" width="152" x="22" y="46"/><ellipse cx="56.35" cy="62" fill="#B4A7E5" rx="11" ry="11" style="stroke: #A80036; stroke-width: 1.0;"/><path d="M58.9125,68.5 L53.3969,68.5 L53.3969,67.0313 L54.8656,66.3594 L54.8656,58.5 L53.3969,57.8281 L53.3969,56.3594 L58.9125,56.3594 L58.9125,57.8281 L57.4438,58.5 L57.4438,66.3594 L58.9125,67.0313 L58.9125,68.5 Z "/><text fill="#000000" font-family="sans-serif" font-size="12" font-style="italic" lengthAdjust="spacingAndGlyphs" textLength="67" x="74.65" y="66.656">Comparable</text><rect fill="#FFFFFF" height="18.3441" style="stroke: #000000; stroke-width: 1.0; stroke-dasharray: 2.0,2.0;" width="8" x="169" y="43"/><text fill="#000000" font-family="sans-serif" font-size="12" font-style="italic" lengthAdjust="spacingAndGlyphs" textLength="6" x="170" y="56.8281">T</text><line style="stroke: #A80036; stroke-width: 1.5;" x1="23" x2="173" y1="78" y2="78"/><line style="stroke: #A80036; stroke-width: 1.5;" x1="23" x2="173" y1="86" y2="86"/><ellipse cx="33" cy="98.9909" fill="#84BE84" rx="3" ry="3" style="stroke: #038048; stroke-width: 1.0;"/><text fill="#000000" font-family="sans-serif" font-size="11" lengthAdjust="spacingAndGlyphs" textLength="126" x="42" y="101.7589">compareTo(other: T): int</text><!--class PlantColor--><rect fill="#FEFECE" filter="url(#fuo7d3w64lzyw)" height="122.9094" id="PlantColor" style="stroke: #A80036; stroke-width: 1.5;" width="101" x="197.5" y="184"/><ellipse cx="212.5" cy="200" fill="#EB937F" rx="11" ry="11" style="stroke: #A80036; stroke-width: 1.0;"/><path d="M215.5156,206.5 L208.5313,206.5 L208.5313,194.3594 L215.5156,194.3594 L215.5156,196.4688 L211.0938,196.4688 L211.0938,199.1406 L215.2188,199.1406 L215.2188,201.25 L211.0938,201.25 L211.0938,204.375 L215.5156,204.375 L215.5156,206.5 Z "/><ellipse cx="231.5" cy="199.5" fill="#84BE84" rx="3" ry="3" style="stroke: #038048; stroke-width: 1.0;"/><text fill="#000000" font-family="sans-serif" font-size="12" lengthAdjust="spacingAndGlyphs" textLength="58" x="237.5" y="204.656">PlantColor</text><line style="stroke: #A80036; stroke-width: 1.5;" x1="198.5" x2="297.5" y1="216" y2="216"/><text fill="#000000" font-family="sans-serif" font-size="11" lengthAdjust="spacingAndGlyphs" textLength="38" x="203.5" y="231.7589">GREEN,</text><text fill="#000000" font-family="sans-serif" font-size="11" lengthAdjust="spacingAndGlyphs" textLength="46" x="203.5" y="246.7408">YELLOW,</text><text fill="#000000" font-family="sans-serif" font-size="11" lengthAdjust="spacingAndGlyphs" textLength="24" x="203.5" y="261.7227">RED,</text><text fill="#000000" font-family="sans-serif" font-size="11" lengthAdjust="spacingAndGlyphs" textLength="30" x="203.5" y="276.7046">BLUE,</text><text fill="#000000" font-family="sans-serif" font-size="11" lengthAdjust="spacingAndGlyphs" textLength="45" x="203.5" y="291.6865">ORANGE</text><line style="stroke: #A80036; stroke-width: 1.5;" x1="198.5" x2="297.5" y1="298.9094" y2="298.9094"/><!--class Plant--><rect fill="#FEFECE" filter="url(#fuo7d3w64lzyw)" height="152.8732" id="Plant" style="stroke: #A80036; stroke-width: 1.5;" width="128" x="34" y="169"/><ellipse cx="74.65" cy="185" fill="#A9DCDF" rx="11" ry="11" style="stroke: #A80036; stroke-width: 1.0;"/><path d="M77.6031,190.25 L76.7281,187.3594 L72.3063,187.3594 L71.4156,190.25 L68.65,190.25 L72.9313,178.0625 L76.0719,178.0625 L80.3844,190.25 L77.6031,190.25 Z M76.1188,185.2031 L75.2281,182.375 Q75.15,182.0938 75.0094,181.6484 Q74.8688,181.2031 74.7359,180.7422 Q74.6031,180.2813 74.5094,179.9531 Q74.4313,180.2813 74.2828,180.7891 Q74.1344,181.2969 74.0094,181.7422 Q73.8844,182.1875 73.8219,182.375 L72.9469,185.2031 L76.1188,185.2031 Z "/><ellipse cx="99.35" cy="184.5" fill="#84BE84" rx="3" ry="3" style="stroke: #038048; stroke-width: 1.0;"/><text fill="#000000" font-family="sans-serif" font-size="12" font-style="italic" lengthAdjust="spacingAndGlyphs" textLength="28" x="105.35" y="189.656">Plant</text><line style="stroke: #A80036; stroke-width: 1.5;" x1="35" x2="161" y1="201" y2="201"/><rect fill="none" height="6" style="stroke: #C82930; stroke-width: 1.0;" width="6" x="42" y="210.9909"/><text fill="#000000" font-family="sans-serif" font-size="11" lengthAdjust="spacingAndGlyphs" textLength="77" x="54" y="216.7589">height: double</text><rect fill="none" height="6" style="stroke: #C82930; stroke-width: 1.0;" width="6" x="42" y="225.9728"/><text fill="#000000" font-family="sans-serif" font-size="11" lengthAdjust="spacingAndGlyphs" textLength="70" x="54" y="231.7408">family: String</text><rect fill="none" height="6" style="stroke: #C82930; stroke-width: 1.0;" width="6" x="42" y="240.9547"/><text fill="#000000" font-family="sans-serif" font-size="11" lengthAdjust="spacingAndGlyphs" textLength="67" x="54" y="246.7227">name: String</text><line style="stroke: #A80036; stroke-width: 1.5;" x1="35" x2="161" y1="253.9457" y2="253.9457"/><ellipse cx="45" cy="266.9366" fill="#84BE84" rx="3" ry="3" style="stroke: #038048; stroke-width: 1.0;"/><text fill="#000000" font-family="sans-serif" font-size="11" lengthAdjust="spacingAndGlyphs" textLength="101" x="54" y="269.7046">getHeight(): double</text><ellipse cx="45" cy="281.9185" fill="#84BE84" rx="3" ry="3" style="stroke: #038048; stroke-width: 1.0;"/><text fill="#000000" font-family="sans-serif" font-size="11" lengthAdjust="spacingAndGlyphs" textLength="95" x="54" y="284.6865">getFamily(): String</text><ellipse cx="45" cy="296.9004" fill="#84BE84" rx="3" ry="3" style="stroke: #038048; stroke-width: 1.0;"/><text fill="#000000" font-family="sans-serif" font-size="11" lengthAdjust="spacingAndGlyphs" textLength="91" x="54" y="299.6684">getName(): String</text><ellipse cx="45" cy="311.8823" fill="#84BE84" rx="3" ry="3" style="stroke: #038048; stroke-width: 1.0;"/><text fill="#000000" font-family="sans-serif" font-size="11" font-style="italic" lengthAdjust="spacingAndGlyphs" textLength="102" x="54" y="314.6502">getColor(): PlantColor</text><!--class Flower--><rect fill="#FEFECE" filter="url(#fuo7d3w64lzyw)" height="48" id="Flower" style="stroke: #A80036; stroke-width: 1.5;" width="80" x="46" y="382"/><ellipse cx="61" cy="398" fill="#ADD1B2" rx="11" ry="11" style="stroke: #A80036; stroke-width: 1.0;"/><path d="M60.6875,394.3281 Q59.2031,394.3281 58.4219,395.4375 Q57.6406,396.5469 57.6406,398.4688 Q57.6406,400.4063 58.3594,401.4688 Q59.0781,402.5313 60.6875,402.5313 Q61.4219,402.5313 62.1641,402.3594 Q62.9063,402.1875 63.7813,401.875 L63.7813,404.0469 Q62.9688,404.3594 62.1875,404.5156 Q61.4063,404.6719 60.4375,404.6719 Q58.5781,404.6719 57.3594,403.8984 Q56.1406,403.125 55.5625,401.7188 Q54.9844,400.3125 54.9844,398.4531 Q54.9844,396.6094 55.6484,395.2031 Q56.3125,393.7969 57.5781,392.9922 Q58.8438,392.1875 60.6875,392.1875 Q61.5781,392.1875 62.4922,392.4219 Q63.4063,392.6563 64.2344,393.0469 L63.4063,395.1406 Q62.7188,394.8125 62.0313,394.5703 Q61.3438,394.3281 60.6875,394.3281 Z "/><ellipse cx="80" cy="397.5" fill="#84BE84" rx="3" ry="3" style="stroke: #038048; stroke-width: 1.0;"/><text fill="#000000" font-family="sans-serif" font-size="12" lengthAdjust="spacingAndGlyphs" textLength="37" x="86" y="402.656">Flower</text><line style="stroke: #A80036; stroke-width: 1.5;" x1="47" x2="125" y1="414" y2="414"/><line style="stroke: #A80036; stroke-width: 1.5;" x1="47" x2="125" y1="422" y2="422"/><!--class Shrub--><rect fill="#FEFECE" filter="url(#fuo7d3w64lzyw)" height="48" id="Shrub" style="stroke: #A80036; stroke-width: 1.5;" width="76" x="161" y="382"/><ellipse cx="176" cy="398" fill="#ADD1B2" rx="11" ry="11" style="stroke: #A80036; stroke-width: 1.0;"/><path d="M175.6875,394.3281 Q174.2031,394.3281 173.4219,395.4375 Q172.6406,396.5469 172.6406,398.4688 Q172.6406,400.4063 173.3594,401.4688 Q174.0781,402.5313 175.6875,402.5313 Q176.4219,402.5313 177.1641,402.3594 Q177.9063,402.1875 178.7813,401.875 L178.7813,404.0469 Q177.9688,404.3594 177.1875,404.5156 Q176.4063,404.6719 175.4375,404.6719 Q173.5781,404.6719 172.3594,403.8984 Q171.1406,403.125 170.5625,401.7188 Q169.9844,400.3125 169.9844,398.4531 Q169.9844,396.6094 170.6484,395.2031 Q171.3125,393.7969 172.5781,392.9922 Q173.8438,392.1875 175.6875,392.1875 Q176.5781,392.1875 177.4922,392.4219 Q178.4063,392.6563 179.2344,393.0469 L178.4063,395.1406 Q177.7188,394.8125 177.0313,394.5703 Q176.3438,394.3281 175.6875,394.3281 Z "/><ellipse cx="195" cy="397.5" fill="#84BE84" rx="3" ry="3" style="stroke: #038048; stroke-width: 1.0;"/><text fill="#000000" font-family="sans-serif" font-size="12" lengthAdjust="spacingAndGlyphs" textLength="33" x="201" y="402.656">Shrub</text><line style="stroke: #A80036; stroke-width: 1.5;" x1="162" x2="236" y1="414" y2="414"/><line style="stroke: #A80036; stroke-width: 1.5;" x1="162" x2="236" y1="422" y2="422"/><!--link Comparable to Plant--><path d="M98,129.3829 C98,141.8293 98,155.3831 98,168.6942 " fill="none" id="Comparable-Plant" style="stroke: #A80036; stroke-width: 1.0; stroke-dasharray: 7.0,7.0;"/><polygon fill="none" points="91.0001,129.0995,98,109.0995,105.0001,129.0995,91.0001,129.0995" style="stroke: #A80036; stroke-width: 1.0;"/><!--link Plant to Flower--><path d="M90.742,342.5754 C89.6549,357.116 88.6254,370.885 87.8052,381.8548 " fill="none" id="Plant-Flower" style="stroke: #A80036; stroke-width: 1.0;"/><polygon fill="none" points="83.7743,341.8817,92.246,322.4593,97.7353,342.9256,83.7743,341.8817" style="stroke: #A80036; stroke-width: 1.0;"/><!--link Plant to Shrub--><path d="M157.2099,339.591 C167.0484,355.2254 176.4321,370.1371 183.8058,381.8548 " fill="none" id="Plant-Shrub" style="stroke: #A80036; stroke-width: 1.0;"/><polygon fill="none" points="151.1568,343.1149,146.4292,322.4593,163.0059,335.6584,151.1568,343.1149" style="stroke: #A80036; stroke-width: 1.0;"/><!--
@startuml
package java.lang {
    
    interface Comparable<T> {
        +compareTo(other: T): int
    }
}

package de.thro.inf.prg3.a05.model {
        +enum PlantColor {
            GREEN,
            YELLOW,
            RED,
            BLUE,
            ORANGE
        }

        +abstract class Plant implements Comparable {
            -height: double
            -family: String
            -name: String

            +getHeight(): double
            +getFamily(): String
            +getName(): String
            +{abstract} getColor(): PlantColor
        }

        +class Flower extends Plant {
        }

        +class Shrub extends Plant{
        }
    }
@enduml

PlantUML version 1.2018.12(Sun Oct 21 12:15:15 CEST 2018)
(GPL source distribution)
Java Runtime: OpenJDK Runtime Environment
JVM: OpenJDK 64-Bit Server VM
Java Version: 1.8.0_192-b26
Operating System: Linux
OS Version: 4.18.16-arch1-1-ARCH
Default Encoding: UTF-8
Language: en
Country: US
--></g></svg>