<?xml version="1.0" encoding="UTF-8" standalone="no"?><svg xmlns="http://www.w3.org/2000/svg" xmlns:xlink="http://www.w3.org/1999/xlink" contentScriptType="application/ecmascript" contentStyleType="text/css" height="129px" preserveAspectRatio="none" style="width:458px;height:129px;" version="1.1" viewBox="0 0 458 129" width="458px" zoomAndPan="magnify"><defs><filter height="300%" id="f10svs8brsel26" width="300%" x="-1" y="-1"><feGaussianBlur result="blurOut" stdDeviation="2.0"/><feColorMatrix in="blurOut" result="blurOut2" type="matrix" values="0 0 0 0 0 0 0 0 0 0 0 0 0 0 0 0 0 0 .4 0"/><feOffset dx="4.0" dy="4.0" in="blurOut2" result="blurOut3"/><feBlend in="SourceGraphic" in2="blurOut3" mode="normal"/></filter></defs><g><!--cluster de.thro.inf.prg3.a05.utils--><polygon fill="#FFFFFF" filter="url(#f10svs8brsel26)" points="14,16,191,16,198,41.0679,436,41.0679,436,117,14,117,14,16" style="stroke: #000000; stroke-width: 1.5;"/><line style="stroke: #000000; stroke-width: 1.5;" x1="14" x2="198" y1="41.0679" y2="41.0679"/><text fill="#000000" font-family="sans-serif" font-size="14" font-weight="bold" lengthAdjust="spacingAndGlyphs" textLength="171" x="18" y="32.9659">de.thro.inf.prg3.a05.utils</text><!--class PlantBedUtility--><rect fill="#FEFECE" filter="url(#f10svs8brsel26)" height="62.9819" id="PlantBedUtility" style="stroke: #A80036; stroke-width: 1.5;" width="405" x="22.5" y="46"/><ellipse cx="175.75" cy="62" fill="#A9DCDF" rx="11" ry="11" style="stroke: #A80036; stroke-width: 1.0;"/><path d="M178.7031,67.25 L177.8281,64.3594 L173.4063,64.3594 L172.5156,67.25 L169.75,67.25 L174.0313,55.0625 L177.1719,55.0625 L181.4844,67.25 L178.7031,67.25 Z M177.2188,62.2031 L176.3281,59.375 Q176.25,59.0938 176.1094,58.6484 Q175.9688,58.2031 175.8359,57.7422 Q175.7031,57.2813 175.6094,56.9531 Q175.5313,57.2813 175.3828,57.7891 Q175.2344,58.2969 175.1094,58.7422 Q174.9844,59.1875 174.9219,59.375 L174.0469,62.2031 L177.2188,62.2031 Z "/><ellipse cx="201.25" cy="61.5" fill="#84BE84" rx="3" ry="3" style="stroke: #038048; stroke-width: 1.0;"/><text fill="#000000" font-family="sans-serif" font-size="12" font-style="italic" lengthAdjust="spacingAndGlyphs" textLength="79" x="207.25" y="66.656">PlantBedUtility</text><line style="stroke: #A80036; stroke-width: 1.5;" x1="23.5" x2="426.5" y1="78" y2="78"/><line style="stroke: #A80036; stroke-width: 1.5;" x1="23.5" x2="426.5" y1="86" y2="86"/><ellipse cx="33.5" cy="98.9909" fill="#84BE84" rx="3" ry="3" style="stroke: #038048; stroke-width: 1.0;"/><text fill="#000000" font-family="sans-serif" font-size="11" lengthAdjust="spacingAndGlyphs" text-decoration="underline" textLength="379" x="42.5" y="101.7589">&lt;T&gt; splitBedByColor(bed: PlantBed&lt;T&gt;) : Map&lt;PlantColor, SimpleList&lt;T&gt;&gt;</text><line style="stroke: #000000; stroke-width: 1.0;" x1="42.5" x2="421.5" y1="103.7589" y2="103.7589"/><!--
@startuml
package de.thro.inf.prg3.a05.utils {
    +abstract class PlantBedUtility{
        +{static} <T> splitBedByColor(bed: PlantBed<T>) : Map<PlantColor, SimpleList<T>>
    }
}
@enduml

PlantUML version 1.2018.12(Sun Oct 21 12:15:15 CEST 2018)
(GPL source distribution)
Java Runtime: OpenJDK Runtime Environment
JVM: OpenJDK 64-Bit Server VM
Java Version: 1.8.0_192-b26
Operating System: Linux
OS Version: 4.18.16-arch1-1-ARCH
Default Encoding: UTF-8
Language: en
Country: US
--></g></svg>