<?xml version="1.0" encoding="UTF-8" standalone="no"?><svg xmlns="http://www.w3.org/2000/svg" xmlns:xlink="http://www.w3.org/1999/xlink" contentScriptType="application/ecmascript" contentStyleType="text/css" height="430px" preserveAspectRatio="none" style="width:351px;height:430px;" version="1.1" viewBox="0 0 351 430" width="351px" zoomAndPan="magnify"><defs><filter height="300%" id="f1jb7rmgebmtsa" width="300%" x="-1" y="-1"><feGaussianBlur result="blurOut" stdDeviation="2.0"/><feColorMatrix in="blurOut" result="blurOut2" type="matrix" values="0 0 0 0 0 0 0 0 0 0 0 0 0 0 0 0 0 0 .4 0"/><feOffset dx="4.0" dy="4.0" in="blurOut2" result="blurOut3"/><feBlend in="SourceGraphic" in2="blurOut3" mode="normal"/></filter></defs><g><!--cluster java.lang--><polygon fill="#FFFFFF" filter="url(#f1jb7rmgebmtsa)" points="14,16,89,16,96,38.2969,196,38.2969,196,112,14,112,14,16" style="stroke: #000000; stroke-width: 2.0;"/><line style="stroke: #000000; stroke-width: 2.0;" x1="14" x2="96" y1="38.2969" y2="38.2969"/><text fill="#000000" font-family="sans-serif" font-size="14" font-weight="bold" lengthAdjust="spacingAndGlyphs" textLength="69" x="18" y="30.9951">java.lang</text><!--cluster de.fhro.inf.prg3.a05.model--><polygon fill="#FFFFFF" filter="url(#f1jb7rmgebmtsa)" points="23,137,241,137,248,159.2969,329,159.2969,329,418,23,418,23,137" style="stroke: #000000; stroke-width: 2.0;"/><line style="stroke: #000000; stroke-width: 2.0;" x1="23" x2="248" y1="159.2969" y2="159.2969"/><text fill="#000000" font-family="sans-serif" font-size="14" font-weight="bold" lengthAdjust="spacingAndGlyphs" textLength="212" x="27" y="151.9951">de.fhro.inf.prg3.a05.model</text><!--class Comparable--><rect fill="#FEFECE" filter="url(#f1jb7rmgebmtsa)" height="60.8047" id="Comparable" style="stroke: #A80036; stroke-width: 1.5;" width="165" x="22.5" y="43"/><ellipse cx="58.65" cy="59" fill="#B4A7E5" rx="11" ry="11" style="stroke: #A80036; stroke-width: 1.0;"/><path d="M54.5719,54.7656 L54.5719,52.6094 L61.9625,52.6094 L61.9625,54.7656 L59.4938,54.7656 L59.4938,62.8438 L61.9625,62.8438 L61.9625,65 L54.5719,65 L54.5719,62.8438 L57.0406,62.8438 L57.0406,54.7656 L54.5719,54.7656 Z "/><text fill="#000000" font-family="sans-serif" font-size="12" font-style="italic" lengthAdjust="spacingAndGlyphs" textLength="75" x="77.35" y="63.1543">Comparable</text><rect fill="#FFFFFF" height="15.9688" style="stroke: #000000; stroke-width: 1.0; stroke-dasharray: 2.0,2.0;" width="9" x="181.5" y="40"/><text fill="#000000" font-family="sans-serif" font-size="12" font-style="italic" lengthAdjust="spacingAndGlyphs" textLength="7" x="182.5" y="52.1387">T</text><line style="stroke: #A80036; stroke-width: 1.5;" x1="23.5" x2="186.5" y1="75" y2="75"/><line style="stroke: #A80036; stroke-width: 1.5;" x1="23.5" x2="186.5" y1="83" y2="83"/><ellipse cx="33.5" cy="94.9023" fill="#84BE84" rx="3" ry="3" style="stroke: #038048; stroke-width: 1.0;"/><text fill="#000000" font-family="sans-serif" font-size="11" lengthAdjust="spacingAndGlyphs" textLength="139" x="42.5" y="97.2104">compareTo(other: T): int</text><!--class PlantColor--><rect fill="#FEFECE" filter="url(#f1jb7rmgebmtsa)" height="112.0234" id="PlantColor" style="stroke: #A80036; stroke-width: 1.5;" width="107" x="214.5" y="177"/><ellipse cx="229.5" cy="193" fill="#EB937F" rx="11" ry="11" style="stroke: #A80036; stroke-width: 1.0;"/><path d="M233.6094,199 L225.8906,199 L225.8906,186.6094 L233.6094,186.6094 L233.6094,188.7656 L228.3438,188.7656 L228.3438,191.4375 L233.1094,191.4375 L233.1094,193.5938 L228.3438,193.5938 L228.3438,196.8438 L233.6094,196.8438 L233.6094,199 Z "/><ellipse cx="248.5" cy="192.5" fill="#84BE84" rx="3" ry="3" style="stroke: #038048; stroke-width: 1.0;"/><text fill="#000000" font-family="sans-serif" font-size="12" lengthAdjust="spacingAndGlyphs" textLength="64" x="254.5" y="197.1543">PlantColor</text><line style="stroke: #A80036; stroke-width: 1.5;" x1="215.5" x2="320.5" y1="209" y2="209"/><text fill="#000000" font-family="sans-serif" font-size="11" lengthAdjust="spacingAndGlyphs" textLength="42" x="220.5" y="223.2104">GREEN,</text><text fill="#000000" font-family="sans-serif" font-size="11" lengthAdjust="spacingAndGlyphs" textLength="48" x="220.5" y="236.0151">YELLOW,</text><text fill="#000000" font-family="sans-serif" font-size="11" lengthAdjust="spacingAndGlyphs" textLength="26" x="220.5" y="248.8198">RED,</text><text fill="#000000" font-family="sans-serif" font-size="11" lengthAdjust="spacingAndGlyphs" textLength="33" x="220.5" y="261.6245">BLUE,</text><text fill="#000000" font-family="sans-serif" font-size="11" lengthAdjust="spacingAndGlyphs" textLength="47" x="220.5" y="274.4292">ORANGE</text><line style="stroke: #A80036; stroke-width: 1.5;" x1="215.5" x2="320.5" y1="281.0234" y2="281.0234"/><!--class Plant--><rect fill="#FEFECE" filter="url(#f1jb7rmgebmtsa)" height="137.6328" id="Plant" style="stroke: #A80036; stroke-width: 1.5;" width="148" x="31" y="164"/><ellipse cx="79.75" cy="180" fill="#A9DCDF" rx="11" ry="11" style="stroke: #A80036; stroke-width: 1.0;"/><path d="M79.8594,175.3438 L78.7031,180.4219 L81.0313,180.4219 L79.8594,175.3438 Z M78.375,173.1094 L81.3594,173.1094 L84.7188,185.5 L82.2656,185.5 L81.5,182.4375 L78.2188,182.4375 L77.4688,185.5 L75.0313,185.5 L78.375,173.1094 Z "/><ellipse cx="105.25" cy="179.5" fill="#84BE84" rx="3" ry="3" style="stroke: #038048; stroke-width: 1.0;"/><text fill="#000000" font-family="sans-serif" font-size="12" font-style="italic" lengthAdjust="spacingAndGlyphs" textLength="31" x="111.25" y="184.1543">Plant</text><line style="stroke: #A80036; stroke-width: 1.5;" x1="32" x2="178" y1="196" y2="196"/><rect fill="none" height="6" style="stroke: #C82930; stroke-width: 1.0;" width="6" x="39" y="204.9023"/><text fill="#000000" font-family="sans-serif" font-size="11" lengthAdjust="spacingAndGlyphs" textLength="81" x="51" y="210.2104">height: double</text><rect fill="none" height="6" style="stroke: #C82930; stroke-width: 1.0;" width="6" x="39" y="217.707"/><text fill="#000000" font-family="sans-serif" font-size="11" lengthAdjust="spacingAndGlyphs" textLength="76" x="51" y="223.0151">family: String</text><rect fill="none" height="6" style="stroke: #C82930; stroke-width: 1.0;" width="6" x="39" y="230.5117"/><text fill="#000000" font-family="sans-serif" font-size="11" lengthAdjust="spacingAndGlyphs" textLength="74" x="51" y="235.8198">name: String</text><line style="stroke: #A80036; stroke-width: 1.5;" x1="32" x2="178" y1="242.4141" y2="242.4141"/><ellipse cx="42" cy="254.3164" fill="#84BE84" rx="3" ry="3" style="stroke: #038048; stroke-width: 1.0;"/><text fill="#000000" font-family="sans-serif" font-size="11" lengthAdjust="spacingAndGlyphs" textLength="108" x="51" y="256.6245">getHeight(): double</text><ellipse cx="42" cy="267.1211" fill="#84BE84" rx="3" ry="3" style="stroke: #038048; stroke-width: 1.0;"/><text fill="#000000" font-family="sans-serif" font-size="11" lengthAdjust="spacingAndGlyphs" textLength="104" x="51" y="269.4292">getFamily(): String</text><ellipse cx="42" cy="279.9258" fill="#84BE84" rx="3" ry="3" style="stroke: #038048; stroke-width: 1.0;"/><text fill="#000000" font-family="sans-serif" font-size="11" lengthAdjust="spacingAndGlyphs" textLength="101" x="51" y="282.2339">getName(): String</text><ellipse cx="42" cy="292.7305" fill="#84BE84" rx="3" ry="3" style="stroke: #038048; stroke-width: 1.0;"/><text fill="#000000" font-family="sans-serif" font-size="11" font-style="italic" lengthAdjust="spacingAndGlyphs" textLength="122" x="51" y="295.0386">getColor(): PlantColor</text><!--class Flower--><rect fill="#FEFECE" filter="url(#f1jb7rmgebmtsa)" height="48" id="Flower" style="stroke: #A80036; stroke-width: 1.5;" width="83" x="47.5" y="362"/><ellipse cx="62.5" cy="378" fill="#ADD1B2" rx="11" ry="11" style="stroke: #A80036; stroke-width: 1.0;"/><path d="M65.4688,383.6406 Q64.8906,383.9375 64.25,384.0859 Q63.6094,384.2344 62.9063,384.2344 Q60.4063,384.2344 59.0859,382.5859 Q57.7656,380.9375 57.7656,377.8125 Q57.7656,374.6875 59.0859,373.0313 Q60.4063,371.375 62.9063,371.375 Q63.6094,371.375 64.2578,371.5313 Q64.9063,371.6875 65.4688,371.9844 L65.4688,374.7031 Q64.8438,374.125 64.25,373.8516 Q63.6563,373.5781 63.0313,373.5781 Q61.6875,373.5781 61,374.6484 Q60.3125,375.7188 60.3125,377.8125 Q60.3125,379.9063 61,380.9766 Q61.6875,382.0469 63.0313,382.0469 Q63.6563,382.0469 64.25,381.7734 Q64.8438,381.5 65.4688,380.9219 L65.4688,383.6406 Z "/><ellipse cx="81.5" cy="377.5" fill="#84BE84" rx="3" ry="3" style="stroke: #038048; stroke-width: 1.0;"/><text fill="#000000" font-family="sans-serif" font-size="12" lengthAdjust="spacingAndGlyphs" textLength="40" x="87.5" y="382.1543">Flower</text><line style="stroke: #A80036; stroke-width: 1.5;" x1="48.5" x2="129.5" y1="394" y2="394"/><line style="stroke: #A80036; stroke-width: 1.5;" x1="48.5" x2="129.5" y1="402" y2="402"/><!--class Shrub--><rect fill="#FEFECE" filter="url(#f1jb7rmgebmtsa)" height="48" id="Shrub" style="stroke: #A80036; stroke-width: 1.5;" width="80" x="166" y="362"/><ellipse cx="181" cy="378" fill="#ADD1B2" rx="11" ry="11" style="stroke: #A80036; stroke-width: 1.0;"/><path d="M183.9688,383.6406 Q183.3906,383.9375 182.75,384.0859 Q182.1094,384.2344 181.4063,384.2344 Q178.9063,384.2344 177.5859,382.5859 Q176.2656,380.9375 176.2656,377.8125 Q176.2656,374.6875 177.5859,373.0313 Q178.9063,371.375 181.4063,371.375 Q182.1094,371.375 182.7578,371.5313 Q183.4063,371.6875 183.9688,371.9844 L183.9688,374.7031 Q183.3438,374.125 182.75,373.8516 Q182.1563,373.5781 181.5313,373.5781 Q180.1875,373.5781 179.5,374.6484 Q178.8125,375.7188 178.8125,377.8125 Q178.8125,379.9063 179.5,380.9766 Q180.1875,382.0469 181.5313,382.0469 Q182.1563,382.0469 182.75,381.7734 Q183.3438,381.5 183.9688,380.9219 L183.9688,383.6406 Z "/><ellipse cx="200" cy="377.5" fill="#84BE84" rx="3" ry="3" style="stroke: #038048; stroke-width: 1.0;"/><text fill="#000000" font-family="sans-serif" font-size="12" lengthAdjust="spacingAndGlyphs" textLength="37" x="206" y="382.1543">Shrub</text><line style="stroke: #A80036; stroke-width: 1.5;" x1="167" x2="245" y1="394" y2="394"/><line style="stroke: #A80036; stroke-width: 1.5;" x1="167" x2="245" y1="402" y2="402"/><!--link Comparable to Plant--><path d="M105,124.56 C105,137.0148 105,150.5467 105,163.6934 " fill="none" id="Comparable-Plant" style="stroke: #A80036; stroke-width: 1.0; stroke-dasharray: 7.0,7.0;"/><polygon fill="none" points="98.0001,124.2532,105,104.2532,112.0001,124.2532,98.0001,124.2532" style="stroke: #A80036; stroke-width: 1.0;"/><!--link Plant to Flower--><path d="M95.6546,322.3656 C94.1333,336.913 92.6788,350.8214 91.5198,361.9044 " fill="none" id="Plant-Flower" style="stroke: #A80036; stroke-width: 1.0;"/><polygon fill="none" points="88.7067,321.5009,97.749,302.3375,102.6308,322.9571,88.7067,321.5009" style="stroke: #A80036; stroke-width: 1.0;"/><!--link Plant to Shrub--><path d="M162.0233,319.3818 C172.3355,335.0033 182.2787,350.0658 190.0937,361.9044 " fill="none" id="Plant-Shrub" style="stroke: #A80036; stroke-width: 1.0;"/><polygon fill="none" points="155.9483,322.8851,150.7718,302.3375,167.6321,315.1722,155.9483,322.8851" style="stroke: #A80036; stroke-width: 1.0;"/><!--
@startuml
package java.lang {
    
    interface Comparable<T> {
        +compareTo(other: T): int
    }
}

package de.fhro.inf.prg3.a05.model {
        +enum PlantColor {
            GREEN,
            YELLOW,
            RED,
            BLUE,
            ORANGE
        }

        +abstract class Plant implements Comparable {
            -height: double
            -family: String
            -name: String

            +getHeight(): double
            +getFamily(): String
            +getName(): String
            +{abstract} getColor(): PlantColor
        }

        +class Flower extends Plant {
        }

        +class Shrub extends Plant{
        }
    }
@enduml

PlantUML version 1.2017.18(Fri Oct 06 18:56:32 CEST 2017)
(GPL source distribution)
Java Runtime: OpenJDK Runtime Environment
JVM: OpenJDK 64-Bit Server VM
Java Version: 1.8.0_144-b01
Operating System: Linux
OS Version: 4.13.10-1-ARCH
Default Encoding: UTF-8
Language: en
Country: US
--></g></svg>