<?xml version="1.0" encoding="UTF-8" standalone="no"?><svg xmlns="http://www.w3.org/2000/svg" xmlns:xlink="http://www.w3.org/1999/xlink" contentScriptType="application/ecmascript" contentStyleType="text/css" height="174px" preserveAspectRatio="none" style="width:340px;height:174px;" version="1.1" viewBox="0 0 340 174" width="340px" zoomAndPan="magnify"><defs><filter height="300%" id="fj4g6b9s0c0pc" width="300%" x="-1" y="-1"><feGaussianBlur result="blurOut" stdDeviation="2.0"/><feColorMatrix in="blurOut" result="blurOut2" type="matrix" values="0 0 0 0 0 0 0 0 0 0 0 0 0 0 0 0 0 0 .4 0"/><feOffset dx="4.0" dy="4.0" in="blurOut2" result="blurOut3"/><feBlend in="SourceGraphic" in2="blurOut3" mode="normal"/></filter></defs><g><!--cluster de.thro.inf.prg3.a05--><polygon fill="#FFFFFF" filter="url(#fj4g6b9s0c0pc)" points="14,16,157,16,164,41.0679,318,41.0679,318,162,14,162,14,16" style="stroke: #000000; stroke-width: 1.5;"/><line style="stroke: #000000; stroke-width: 1.5;" x1="14" x2="164" y1="41.0679" y2="41.0679"/><text fill="#000000" font-family="sans-serif" font-size="14" font-weight="bold" lengthAdjust="spacingAndGlyphs" textLength="137" x="18" y="32.9659">de.thro.inf.prg3.a05</text><!--class PlantBed--><rect fill="#FEFECE" filter="url(#fj4g6b9s0c0pc)" height="107.9276" id="PlantBed" style="stroke: #A80036; stroke-width: 1.5;" width="289" x="21.5" y="46"/><ellipse cx="126.25" cy="62" fill="#ADD1B2" rx="11" ry="11" style="stroke: #A80036; stroke-width: 1.0;"/><path d="M125.9375,58.3281 Q124.4531,58.3281 123.6719,59.4375 Q122.8906,60.5469 122.8906,62.4688 Q122.8906,64.4063 123.6094,65.4688 Q124.3281,66.5313 125.9375,66.5313 Q126.6719,66.5313 127.4141,66.3594 Q128.1563,66.1875 129.0313,65.875 L129.0313,68.0469 Q128.2188,68.3594 127.4375,68.5156 Q126.6563,68.6719 125.6875,68.6719 Q123.8281,68.6719 122.6094,67.8984 Q121.3906,67.125 120.8125,65.7188 Q120.2344,64.3125 120.2344,62.4531 Q120.2344,60.6094 120.8984,59.2031 Q121.5625,57.7969 122.8281,56.9922 Q124.0938,56.1875 125.9375,56.1875 Q126.8281,56.1875 127.7422,56.4219 Q128.6563,56.6563 129.4844,57.0469 L128.6563,59.1406 Q127.9688,58.8125 127.2813,58.5703 Q126.5938,58.3281 125.9375,58.3281 Z "/><ellipse cx="151.75" cy="61.5" fill="#84BE84" rx="3" ry="3" style="stroke: #038048; stroke-width: 1.0;"/><text fill="#000000" font-family="sans-serif" font-size="12" lengthAdjust="spacingAndGlyphs" textLength="50" x="157.75" y="66.656">PlantBed</text><rect fill="#FFFFFF" height="18.3441" style="stroke: #000000; stroke-width: 1.0; stroke-dasharray: 2.0,2.0;" width="8" x="305.5" y="43"/><text fill="#000000" font-family="sans-serif" font-size="12" font-style="italic" lengthAdjust="spacingAndGlyphs" textLength="6" x="306.5" y="56.8281">T</text><line style="stroke: #A80036; stroke-width: 1.5;" x1="22.5" x2="309.5" y1="78" y2="78"/><rect fill="none" height="6" style="stroke: #C82930; stroke-width: 1.0;" width="6" x="29.5" y="87.9909"/><text fill="#000000" font-family="sans-serif" font-size="11" lengthAdjust="spacingAndGlyphs" textLength="109" x="41.5" y="93.7589">plants: SimpleList&lt;T&gt;</text><line style="stroke: #A80036; stroke-width: 1.5;" x1="22.5" x2="309.5" y1="100.9819" y2="100.9819"/><ellipse cx="32.5" cy="113.9728" fill="#84BE84" rx="3" ry="3" style="stroke: #038048; stroke-width: 1.0;"/><text fill="#000000" font-family="sans-serif" font-size="11" lengthAdjust="spacingAndGlyphs" textLength="65" x="41.5" y="116.7408">add(plant: T)</text><ellipse cx="32.5" cy="128.9547" fill="#84BE84" rx="3" ry="3" style="stroke: #038048; stroke-width: 1.0;"/><text fill="#000000" font-family="sans-serif" font-size="11" lengthAdjust="spacingAndGlyphs" textLength="45" x="41.5" y="131.7227">size(): int</text><ellipse cx="32.5" cy="143.9366" fill="#84BE84" rx="3" ry="3" style="stroke: #038048; stroke-width: 1.0;"/><text fill="#000000" font-family="sans-serif" font-size="11" lengthAdjust="spacingAndGlyphs" textLength="263" x="41.5" y="146.7046">getPlantsByColor(color: PlantColor): SimpleList&lt;T&gt;</text><!--
@startuml
package de.thro.inf.prg3.a05 {

    +class PlantBed<T> {
        -plants: SimpleList<T>

        +add(plant: T)
        +size(): int
        +getPlantsByColor(color: PlantColor): SimpleList<T>
    }
}
@enduml

PlantUML version 1.2018.12(Sun Oct 21 12:15:15 CEST 2018)
(GPL source distribution)
Java Runtime: OpenJDK Runtime Environment
JVM: OpenJDK 64-Bit Server VM
Java Version: 1.8.0_192-b26
Operating System: Linux
OS Version: 4.18.16-arch1-1-ARCH
Default Encoding: UTF-8
Language: en
Country: US
--></g></svg>